<?xml version="1.0" encoding="utf-8"?>
<!-- Generator: Adobe Illustrator 24.1.2, SVG Export Plug-In . SVG Version: 6.00 Build 0)  -->
<svg version="1.1" id="Capa_1" xmlns="http://www.w3.org/2000/svg" xmlns:xlink="http://www.w3.org/1999/xlink" x="0px" y="0px"
	 viewBox="0 0 319 74.2" enable-background="new 0 0 319 74.2" xml:space="preserve">
<g>
	<g>
		<path fill="#FFFFFF" d="M52.1,31.9c3.1,0.2,5.4,1.2,7,3.3c1.6,2,2.4,4.5,2.5,7.2v0.3c0,2-0.5,3.8-1.6,5.5
			c-1.1,1.6-2.6,2.8-4.6,3.5c-1.3,0.5-2.6,0.7-3.9,0.7h-0.7c-3.1-0.2-5.4-1.2-7-3.3c-1.6-2-2.4-4.5-2.5-7.2v-0.3
			c0-2,0.5-3.8,1.6-5.5c1-1.6,2.6-2.8,4.6-3.5c1.2-0.5,2.5-0.7,3.9-0.7H52.1z M54.8,43.2c-0.1-2.8-0.6-5-1.4-6.6
			c-0.8-1.6-1.8-2.5-2.7-2.5c-0.7,0-1.4,0.5-1.8,1.6c-0.5,1-0.7,2.5-0.7,4.4v0.9c0.1,2.7,0.6,4.9,1.4,6.6c0.8,1.7,1.8,2.5,2.7,2.5
			c0.7,0,1.4-0.5,1.8-1.6c0.5-1,0.7-2.6,0.7-4.5V43.2z"/>
		<path fill="#FFFFFF" d="M75.3,41c-0.1-2.5-0.4-4.1-1.2-5c-0.6-0.7-1.2-1-1.8-1c-0.7,0-1.3,0.4-1.7,1.2c-0.5,0.8-0.7,1.9-0.7,3.4
			V49c0.1,0.8,0.3,1.5,0.6,2.2c0.1,0.2,0.1,0.3,0.1,0.3c0,0.3-0.2,0.5-0.5,0.5h-6.3c-0.4,0-0.5-0.2-0.5-0.5c0-0.1,0-0.2,0.1-0.3
			c0.3-0.7,0.5-1.4,0.6-2.2c0-1.6-0.1-3.8-0.1-6.8c0-2.9-0.1-5.5-0.1-7.9c0-2.4,0-4.6,0-6.7c0-0.2,0-0.5-0.1-0.7
			c-0.1-0.2-0.1-0.4-0.2-0.6c-0.1-0.2-0.1-0.3-0.2-0.4c-0.1-0.2-0.1-0.3-0.1-0.4c0-0.3,0.2-0.5,0.6-0.6c1.7-0.4,3.4-1.1,5-2.3
			c0.3-0.2,0.5-0.3,0.6-0.3c0.3,0,0.5,0.4,0.5,1.1l0.2,11.1c0.9-1.8,2.4-2.7,4.6-2.7c1.7,0,3.3,0.6,4.6,1.9c1.3,1.3,2,3.1,2.1,5.3
			c0,0.6,0,2.2,0,4.9c0,2.7,0,4.3,0,4.9c0,0.7,0.2,1.4,0.6,2.2c0.1,0.1,0.1,0.2,0.1,0.3c0,0.3-0.2,0.5-0.6,0.5h-6.2
			c-0.4,0-0.5-0.2-0.5-0.5c0-0.2,0-0.3,0-0.3c0.4-0.7,0.6-1.4,0.6-2.2C75.3,46.5,75.3,43.8,75.3,41z"/>
		<path fill="#FFFFFF" d="M90.3,52.4c-1.6-0.1-3.1-0.7-4.4-1.8c-1.3-1.1-2-2.5-2-4.1v-0.1c0-0.8,0.2-1.4,0.5-2
			c0.3-0.6,0.6-1,0.9-1.3c0.3-0.3,0.8-0.6,1.6-0.9c0.8-0.3,1.3-0.5,1.7-0.5c0.4-0.1,1-0.2,2-0.5c1.8-0.4,3.1-0.9,3.8-1.4
			c0.7-0.5,1.1-1.3,1.1-2.3v-0.1c0-1-0.4-1.8-1.2-2.4c-0.7-0.6-1.6-1-2.5-1c-0.3,0-0.5,0-0.6,0c-0.7,0.1-1,0.5-1,1
			c0,0.2,0.1,0.5,0.2,0.9c0.1,0.2,0.1,0.4,0.3,0.6c0.1,0.3,0.2,0.5,0.3,0.7c0.1,0.2,0.1,0.3,0.1,0.5c0,0.5-0.3,0.9-0.9,1.3
			c-0.7,0.5-1.5,0.7-2.5,0.7c-0.3,0-0.5,0-0.6,0c-0.9-0.1-1.6-0.4-2.1-1c-0.5-0.5-0.8-1.2-0.8-1.9c0-0.4,0.1-0.9,0.4-1.5
			c0.5-1.1,1.4-1.9,2.8-2.5c1.4-0.6,2.9-0.9,4.6-0.9c2.4,0,4.5,0.6,6.5,1.7c1.9,1.1,3.1,2.8,3.6,4.9c0.2,1.4,0.4,4.7,0.4,9.9
			c0,1,0.2,1.9,0.6,2.7c0.1,0.2,0.1,0.3,0.1,0.4c0,0.3-0.2,0.5-0.6,0.5l-4.6,0c-0.5,0-0.9-0.2-1.2-0.5c-0.4-0.4-0.5-0.8-0.5-1.3
			c-1.5,1.6-3.4,2.3-5.6,2.3H90.3z M95.6,41.2c-0.4,0.4-1.1,0.8-2.1,1.2c-1,0.4-1.8,0.9-2.4,1.5c-0.6,0.6-0.9,1.4-0.9,2.4
			c0,0.9,0.3,1.7,0.8,2.4c0.5,0.8,1.2,1.1,1.9,1.1h0.2c1.7-0.2,2.5-2.3,2.5-6.4C95.6,42.5,95.6,41.7,95.6,41.2z"/>
		<path fill="#FFFFFF" d="M116.7,41c-0.1-2.4-0.4-4.1-1.1-5c-0.6-0.7-1.2-1-1.8-1c-0.7,0-1.3,0.4-1.7,1.2c-0.5,0.8-0.7,2-0.7,3.5
			l0,9.3c0.1,0.8,0.3,1.5,0.6,2.2c0.1,0.1,0.1,0.2,0.1,0.3c0,0.3-0.2,0.5-0.5,0.5h-6.3c-0.4,0-0.5-0.2-0.5-0.5c0,0,0-0.1,0.1-0.3
			c0.3-0.7,0.5-1.4,0.6-2.2c0-1.7-0.1-4-0.1-6.7s-0.1-4.6-0.1-5.5c0-0.3,0-0.5-0.1-0.7c-0.1-0.2-0.1-0.4-0.2-0.5
			c-0.1-0.2-0.2-0.3-0.2-0.3c0-0.1,0-0.2,0-0.4c0-0.4,0.2-0.6,0.6-0.7c1.7-0.3,3.4-1.1,5-2.3c0.3-0.2,0.5-0.3,0.7-0.3
			c0.3,0,0.5,0.4,0.5,1.1v2.2c1.1-2,2.7-3,4.7-3c1.7,0,3.2,0.7,4.6,2.1c1.3,1.4,2,3.1,2.1,5.2c0,1.2,0,4.5,0,9.8
			c0.1,0.7,0.3,1.4,0.6,2.2c0,0.1,0,0.2,0,0.3c0,0.3-0.2,0.5-0.5,0.5h-6.2c-0.4,0-0.6-0.2-0.6-0.5c0-0.1,0-0.2,0.1-0.3
			c0.4-0.7,0.5-1.4,0.6-2.2C116.8,46.2,116.8,43.5,116.7,41z"/>
		<path fill="#FFFFFF" d="M131.7,52.4c-1.6-0.1-3.1-0.7-4.4-1.8c-1.3-1.1-2-2.5-2-4.1v-0.1c0-0.8,0.2-1.4,0.5-2
			c0.3-0.6,0.6-1,0.9-1.3c0.3-0.3,0.8-0.6,1.6-0.9s1.3-0.5,1.7-0.5c0.4-0.1,1-0.2,2-0.5c1.8-0.4,3.1-0.9,3.8-1.4
			c0.7-0.5,1.1-1.3,1.1-2.3v-0.1c0-1-0.4-1.8-1.2-2.4c-0.7-0.6-1.6-1-2.5-1c-0.3,0-0.5,0-0.6,0c-0.7,0.1-1,0.5-1,1
			c0,0.2,0.1,0.5,0.2,0.9c0.1,0.2,0.1,0.4,0.3,0.6c0.1,0.3,0.2,0.5,0.3,0.7c0.1,0.2,0.1,0.3,0.1,0.5c0,0.5-0.3,0.9-0.9,1.3
			c-0.7,0.5-1.5,0.7-2.5,0.7c-0.3,0-0.5,0-0.6,0c-0.9-0.1-1.6-0.4-2.1-1c-0.5-0.5-0.8-1.2-0.8-1.9c0-0.4,0.1-0.9,0.4-1.5
			c0.5-1.1,1.4-1.9,2.8-2.5c1.4-0.6,2.9-0.9,4.6-0.9c2.4,0,4.5,0.6,6.5,1.7c1.9,1.1,3.1,2.8,3.6,4.9c0.2,1.4,0.4,4.7,0.4,9.9
			c0,1,0.2,1.9,0.6,2.7c0.1,0.2,0.1,0.3,0.1,0.4c0,0.3-0.2,0.5-0.6,0.5l-4.6,0c-0.5,0-0.9-0.2-1.2-0.5c-0.4-0.4-0.5-0.8-0.5-1.3
			c-1.5,1.6-3.4,2.3-5.6,2.3H131.7z M137,41.2c-0.4,0.4-1.1,0.8-2.1,1.2c-1,0.4-1.8,0.9-2.4,1.5c-0.6,0.6-0.9,1.4-0.9,2.4
			c0,0.9,0.3,1.7,0.8,2.4c0.5,0.8,1.2,1.1,1.9,1.1h0.2c1.7-0.2,2.5-2.3,2.5-6.4C137,42.5,137,41.7,137,41.2z"/>
		<path fill="#FFFFFF" d="M170.1,52.3c-2.5,0-4.8-0.7-6.7-2.1c-1.9-1.4-3.3-3.1-4.2-5.2c-0.9-2.1-1.4-4.3-1.4-6.8
			c0-2.3,0.4-4.4,1.3-6.4c0.9-2,2.2-3.6,3.9-4.9c1.8-1.3,4-2,6.5-2c2.1,0,4,0.5,5.7,1.4c1.8,0.9,3.1,2.3,3.9,4
			c0.4,0.8,0.6,1.6,0.6,2.4c0,1-0.3,1.8-0.9,2.5c-0.6,0.7-1.5,1.1-2.6,1.2c-0.1,0-0.4,0-0.6,0c-1.1,0-2.1-0.3-2.8-0.8
			c-0.7-0.5-1-1-1-1.4c0-0.2,0-0.4,0.1-0.6c0.1-0.2,0.2-0.4,0.3-0.7c0.1-0.3,0.3-0.5,0.3-0.7c0.2-0.5,0.3-0.9,0.3-1.3
			c0-0.9-0.4-1.7-1.1-2.3c-0.8-0.6-1.6-0.9-2.6-0.9c-1,0-1.9,0.3-2.7,0.9c-0.8,0.6-1.4,1.5-1.8,2.7c-0.4,1.1-0.5,2.3-0.5,3.5
			c0,3,0.9,5.9,2.6,8.5c1.7,2.6,3.7,3.9,5.8,3.9c1.9,0,3.5-1.1,5-3.3c0.1-0.2,0.3-0.4,0.4-0.7c0.2-0.3,0.3-0.5,0.4-0.6
			c0.1-0.1,0.2-0.2,0.3-0.3c0.1-0.1,0.3-0.2,0.4-0.2h0c0.4,0,0.7,0.5,0.7,1.5c0,0.4,0,0.8-0.1,1.3c-0.5,2.4-1.6,4.2-3.4,5.5
			c-1.8,1.3-3.8,1.9-6.1,1.9H170.1z"/>
		<path fill="#FFFFFF" d="M186,34.2c1.8-1.5,4.3-2.3,7.4-2.3c2.1,0,3.9,0.5,5.3,1.5c1.4,1,2.2,2.4,2.2,4.4V38c0,0.8-0.2,1.4-0.5,1.9
			c-0.3,0.5-0.6,1-0.9,1.3c-0.3,0.3-0.9,0.6-1.6,0.9c-0.7,0.3-1.3,0.5-1.7,0.5c-0.4,0.1-1.1,0.2-2,0.4c-2,0.4-3.3,1.1-3.9,2.2
			c0.3,1,0.8,1.8,1.6,2.5c0.8,0.6,1.7,0.9,2.6,0.9c1.7,0,3.1-0.9,4.3-2.6c0.1-0.1,0.2-0.3,0.3-0.5c0.1-0.2,0.2-0.3,0.3-0.5
			c0.1-0.1,0.2-0.2,0.2-0.3c0.1-0.1,0.2-0.1,0.3-0.1h0c0.4,0,0.5,0.4,0.5,1.2c0,0.2,0,0.5-0.1,0.9c-0.4,1.8-1.3,3.2-2.7,4.2
			c-1.4,1-3.1,1.5-5,1.5c-2.1,0-4.1-0.6-6-1.9c-1.8-1.3-3.1-3.1-3.8-5.4c-0.4-1.1-0.5-2.2-0.5-3.4C182.6,38.7,183.7,36.2,186,34.2z
			 M191.8,34.4c-1.7,0.2-2.5,1.9-2.5,5.3c0,0.9,0.1,2,0.2,3.3c0.4-0.3,1.1-0.7,2.1-1.2c1-0.4,1.8-0.9,2.3-1.5
			c0.5-0.6,0.8-1.4,0.8-2.4c0-0.8-0.3-1.6-0.8-2.4c-0.5-0.8-1.2-1.1-1.9-1.1H191.8z"/>
		<path fill="#FFFFFF" d="M209.6,50c0,0.6-0.2,1.1-0.5,1.5c-0.3,0.4-0.8,0.6-1.3,0.6h-4.7c-0.3,0-0.5-0.2-0.5-0.5
			c0-0.1,0-0.2,0.1-0.3c0.4-0.8,0.6-1.7,0.6-2.7c0-2.3-0.1-5.8-0.2-10.4c-0.1-4.6-0.2-8.1-0.2-10.4c0-0.3,0-0.5-0.1-0.7
			c0-0.2-0.1-0.4-0.2-0.6c-0.1-0.2-0.2-0.3-0.2-0.3c-0.1-0.2-0.1-0.3-0.1-0.4c0-0.3,0.2-0.5,0.6-0.6c1.7-0.4,3.4-1.1,5-2.3
			c0.3-0.2,0.5-0.3,0.6-0.3c0.3,0,0.5,0.4,0.5,1.1l0.2,11c1.4-1.8,3.1-2.8,5.2-2.8c1.7,0,3.2,0.5,4.7,1.5c1.4,0.9,2.4,2.1,3.2,3.7
			c0.7,1.6,1.1,3.4,1.1,5.2c0,2.7-0.6,5-1.9,6.8c-0.7,1.1-1.6,1.9-2.8,2.5c-1.2,0.6-2.5,0.9-3.8,0.9C212.7,52.4,210.9,51.6,209.6,50
			z M216.7,43.4c-0.1-2.6-0.6-4.7-1.5-6.3c-0.9-1.6-1.8-2.3-2.9-2.3c-0.8,0-1.4,0.5-1.9,1.5c-0.5,1-0.8,2.4-0.8,4.3v0.8
			c0.1,2.6,0.6,4.7,1.5,6.3c0.9,1.6,1.8,2.4,2.8,2.4c0.8,0,1.4-0.5,1.9-1.5c0.5-1,0.8-2.4,0.8-4.3V43.4z"/>
		<path fill="#FFFFFF" d="M231.7,52.4c-1.6-0.1-3.1-0.7-4.4-1.8c-1.3-1.1-2-2.5-2-4.1v-0.1c0-0.8,0.2-1.4,0.5-2
			c0.3-0.6,0.6-1,0.9-1.3c0.3-0.3,0.8-0.6,1.6-0.9s1.3-0.5,1.7-0.5c0.4-0.1,1-0.2,2-0.5c1.8-0.4,3.1-0.9,3.8-1.4
			c0.7-0.5,1.1-1.3,1.1-2.3v-0.1c0-1-0.4-1.8-1.2-2.4c-0.7-0.6-1.6-1-2.5-1c-0.3,0-0.5,0-0.6,0c-0.7,0.1-1,0.5-1,1
			c0,0.2,0.1,0.5,0.2,0.9c0.1,0.2,0.1,0.4,0.3,0.6c0.1,0.3,0.2,0.5,0.3,0.7c0.1,0.2,0.1,0.3,0.1,0.5c0,0.5-0.3,0.9-0.9,1.3
			c-0.7,0.5-1.5,0.7-2.5,0.7c-0.3,0-0.5,0-0.6,0c-0.9-0.1-1.6-0.4-2.1-1c-0.5-0.5-0.8-1.2-0.8-1.9c0-0.4,0.1-0.9,0.4-1.5
			c0.5-1.1,1.4-1.9,2.8-2.5c1.4-0.6,2.9-0.9,4.6-0.9c2.4,0,4.5,0.6,6.5,1.7c1.9,1.1,3.1,2.8,3.6,4.9c0.2,1.4,0.4,4.7,0.4,9.9
			c0,1,0.2,1.9,0.6,2.7c0.1,0.2,0.1,0.3,0.1,0.4c0,0.3-0.2,0.5-0.6,0.5l-4.6,0c-0.5,0-0.9-0.2-1.2-0.5c-0.4-0.4-0.5-0.8-0.5-1.3
			c-1.5,1.6-3.4,2.3-5.6,2.3H231.7z M236.9,41.2c-0.4,0.4-1.1,0.8-2.1,1.2c-1,0.4-1.8,0.9-2.4,1.5c-0.6,0.6-0.9,1.4-0.9,2.4
			c0,0.9,0.3,1.7,0.8,2.4c0.5,0.8,1.2,1.1,1.9,1.1h0.2c1.7-0.2,2.5-2.3,2.5-6.4C237,42.5,237,41.7,236.9,41.2z"/>
		<path fill="#FFFFFF" d="M252.7,23.5l0.1,25.5c0.1,0.7,0.3,1.4,0.6,2.2c0,0.1,0,0.2,0,0.3c0,0.3-0.2,0.5-0.5,0.5h-6.2
			c-0.4,0-0.6-0.2-0.6-0.5c0-0.1,0-0.2,0.1-0.3c0.4-0.7,0.5-1.4,0.6-2.2l-0.2-21.4c0-0.4-0.1-0.7-0.3-1.1c-0.2-0.3-0.3-0.5-0.3-0.7
			c0,0,0-0.1,0-0.1c0,0,0-0.1,0-0.1c0-0.4,0.2-0.6,0.7-0.7c1.7-0.3,3.4-1.1,5-2.3c0.3-0.2,0.5-0.3,0.6-0.3
			C252.5,22.5,252.7,22.8,252.7,23.5z"/>
		<path fill="#FFFFFF" d="M261.7,23.5l0.1,25.5c0.1,0.7,0.3,1.4,0.6,2.2c0,0.1,0,0.2,0,0.3c0,0.3-0.2,0.5-0.5,0.5h-6.2
			c-0.4,0-0.6-0.2-0.6-0.5c0-0.1,0-0.2,0.1-0.3c0.4-0.7,0.5-1.4,0.6-2.2l-0.2-21.4c0-0.4-0.1-0.7-0.3-1.1c-0.2-0.3-0.3-0.5-0.3-0.7
			c0,0,0-0.1,0-0.1c0,0,0-0.1,0-0.1c0-0.4,0.2-0.6,0.7-0.7c1.7-0.3,3.4-1.1,5-2.3c0.3-0.2,0.5-0.3,0.6-0.3
			C261.6,22.5,261.7,22.8,261.7,23.5z"/>
		<path fill="#FFFFFF" d="M274.9,31.9c3.1,0.2,5.4,1.2,7,3.3c1.6,2,2.4,4.5,2.5,7.2v0.3c0,2-0.5,3.8-1.6,5.5
			c-1.1,1.6-2.6,2.8-4.6,3.5c-1.3,0.5-2.6,0.7-3.9,0.7h-0.7c-3.1-0.2-5.4-1.2-7-3.3c-1.6-2-2.4-4.5-2.5-7.2v-0.3
			c0-2,0.5-3.8,1.6-5.5c1-1.6,2.6-2.8,4.6-3.5c1.2-0.5,2.5-0.7,3.9-0.7H274.9z M277.6,43.2c-0.1-2.8-0.6-5-1.4-6.6
			c-0.8-1.6-1.8-2.5-2.7-2.5c-0.7,0-1.4,0.5-1.8,1.6c-0.5,1-0.7,2.5-0.7,4.4v0.9c0.1,2.7,0.6,4.9,1.4,6.6c0.8,1.7,1.8,2.5,2.7,2.5
			c0.7,0,1.4-0.5,1.8-1.6c0.5-1,0.7-2.6,0.7-4.5V43.2z"/>
		<path fill="#FFFFFF" d="M297.2,36.1c0.1-0.3,0.2-0.5,0.2-0.8c0-0.8-0.5-1.1-1.4-1.1c-0.7,0-1.3,0.2-1.9,0.6
			c-0.6,0.4-0.9,0.9-0.9,1.6v0.1c0,0.8,0.5,1.5,1.4,2.2c0.9,0.6,2.1,1.3,3.7,2c1.6,0.7,2.7,1.3,3.4,1.8c1.2,0.9,1.9,2.2,1.9,3.7
			c0,0.9-0.2,1.8-0.7,2.7c-0.5,0.9-1.2,1.6-2.1,2.1c-1.7,1.1-3.7,1.7-5.7,1.7c-1.9,0-3.6-0.5-5.2-1.6c-1.5-1-2.6-2.5-3.2-4.4
			c-0.1-0.4-0.1-0.7-0.1-1c0-0.7,0.2-1,0.6-1.1h0.1c0.3,0,0.5,0.2,0.8,0.5c1.3,1.3,2.4,2.2,3.5,2.7c0.9,0.4,1.7,0.6,2.7,0.6
			c1.3,0,2-0.4,2-1.1c0-0.8-0.9-1.6-2.7-2.5c-3.5-1.7-5.6-3.5-6.4-5.3c-0.2-0.6-0.4-1.2-0.4-1.7c0-0.9,0.3-1.8,0.9-2.6
			c0.6-0.8,1.3-1.5,2.3-2c1.7-0.9,3.6-1.4,5.8-1.4c1.7,0,3.3,0.3,4.7,0.9c1.4,0.6,2.4,1.5,2.9,2.6c0.2,0.6,0.4,1.1,0.4,1.5
			c0,0.8-0.3,1.4-0.8,1.9c-0.5,0.5-1.2,0.8-2.1,0.9c-0.1,0-0.4,0-0.7,0c-0.9,0-1.7-0.2-2.4-0.7c-0.6-0.4-0.8-0.8-0.8-1.3
			C296.5,37.7,296.7,37.1,297.2,36.1z"/>
	</g>
	<g>
		<path fill="#FF2E8D" d="M36.9,24.8H26.5c-0.9,0-1.7-0.7-1.7-1.7v0c0-0.9,0.7-1.7,1.7-1.7h10.4c0.9,0,1.7,0.7,1.7,1.7v0
			C38.6,24,37.8,24.8,36.9,24.8z"/>
		<path fill="#FF2E8D" d="M38.6,27.4L38.6,27.4c0-0.4-0.4-0.8-0.8-0.8h-2.6c-0.4,0-0.8,0.4-0.8,0.8c0,0.1,0,0.3,0,0.4
			c0,4.4,0,8.8,0,13.2c0,3-0.9,5.6-3.7,6.9c-2.8,1.2-5.5,0.9-7.8-1c-2.3-2-3.3-4.4-2.5-7.4c0.2-1,0.5-1.6,1.1-2.1
			c1-0.8,5-0.7,4.6,1.8C25.9,40,25.7,41,25.6,42c0,0,0,0,0,0c0,0.1,0,0.3-0.1,0.4c0,0.6,0,1.1,0.2,1.6c0,0.1,0.1,0.3,0.1,0.4
			c0.4,0.7,1,1.2,1.7,1.3c1.2,0.1,2.4-1.1,2.5-2.9c0-0.1,0-0.2,0-0.2c0-0.2,0-2,0-3.5c0-1.3,0.1-2.9-0.1-3.3
			c-0.1-0.2-0.2-0.5-0.4-0.7c-1-1.2-3.3-2-4.6-2.1c-6.6-0.5-11,4.4-8.6,12c1.7,5.3,6.9,8.1,12.4,7.4c5.7-0.8,9.9-5.5,9.9-11.1
			C38.6,36.6,38.6,32,38.6,27.4z"/>
	</g>
</g>
</svg>
