<?xml version="1.0" encoding="utf-8"?>
<!-- Generator: Adobe Illustrator 24.1.2, SVG Export Plug-In . SVG Version: 6.00 Build 0)  -->
<svg version="1.1" id="Capa_1" xmlns="http://www.w3.org/2000/svg" xmlns:xlink="http://www.w3.org/1999/xlink" x="0px" y="0px"
	 viewBox="0 0 184.6 184.6" enable-background="new 0 0 184.6 184.6" xml:space="preserve">
<circle fill="#12183D" cx="92.3" cy="92.7" r="91.9"/>
<g>
	<path fill="#FF2E8D" d="M154.1,72.8c-3,3.4-6.3,6-10.1,8.1c-3.8,2.1-7.8,3.3-12.2,3.2c0,3.3,0,6.6,0,9.9c0.7,0,1.3,0,1.9,0
		c7.7,0,15.5,0,23.2,0c2.2,0,2.6,0.4,2.6,2.7c0,8.8,0,17.6,0,26.4c0,2.3-0.4,2.8-2.7,2.8c-37.9,0-75.8,0-113.7,0
		c-3,0-3.5-0.5-3.5-3.5c0-27.5,0-55,0-82.6c0-2.3,0.7-3,2.9-3c28.8,0,57.5,0,86.3,0c2.1,0,2.9,0.8,2.9,2.9c0,6.7,0,13.4,0,20.1
		c0,0.5,0,1,0,1.6C141,61.7,147.9,66.3,154.1,72.8z M105.7,123.4c0-0.6,0-1.1,0-1.6c0-8.4,0-16.8,0-25.3c0-2.2,0.4-2.6,2.6-2.6
		c4.5,0,9,0,13.6,0c2.5,0,5,0,7.5,0c0-3.3,0-6.4,0-9.4c0-0.4-0.6-0.9-1-1c-6.6-1.6-11.8-5.2-16.5-10c-0.2-0.3-0.4-0.6-0.7-0.9
		c4.7-5.1,10.1-9,16.9-10.6c1.2-0.3,1.4-0.7,1.4-1.8c0-6.7,0-13.3,0-20c0-0.4-0.1-0.7-0.1-1.1c-29.1,0-58.2,0-87.3,0
		c0,28.1,0,56.1,0,84.2C63.3,123.4,84.4,123.4,105.7,123.4z M108.1,123.4c16.4,0,32.7,0,49,0c0-9.1,0-18,0-27.1c-16.4,0-32.6,0-49,0
		C108.1,105.5,108.1,114.4,108.1,123.4z M114.5,72.8c11.7,11.8,24.7,11.9,36.3,0C138.8,61,126.4,61.1,114.5,72.8z"/>
	<path fill="#FF2E8D" d="M78.2,85.6c-7,0-14,0-21.1,0c-0.5,0-1,0.1-1.4-0.1c-0.4-0.2-0.8-0.7-0.8-1c0-0.4,0.4-0.8,0.8-1
		c0.4-0.2,0.9-0.1,1.4-0.1c14,0,28,0,42,0c0.2,0,0.4,0,0.6,0c0.8,0,1.6,0.1,1.7,1.1c0,1.1-0.8,1.2-1.7,1.2c-6.5,0-12.9,0-19.4,0
		C79.6,85.6,78.9,85.6,78.2,85.6z"/>
	<path fill="#FF2E8D" d="M78.1,62.3c-7,0-14,0-21,0c-0.4,0-0.8,0.1-1.1-0.1C55.5,62,55,61.5,55,61.2c0-0.4,0.5-0.9,0.9-1.1
		c0.3-0.2,0.8-0.1,1.2-0.1c14,0,28.1,0,42.1,0c0.2,0,0.5,0,0.7,0c0.8,0,1.5,0.3,1.5,1.1c0,0.9-0.6,1.2-1.4,1.2c-1.8,0-3.7,0-5.5,0
		C89,62.3,83.5,62.3,78.1,62.3z"/>
	<path fill="#FF2E8D" d="M78.1,73.3c-7,0-14,0-21,0c-0.4,0-0.8,0.1-1.1-0.1C55.5,73,55,72.6,55,72.2c0-0.4,0.5-0.9,0.9-1.1
		c0.3-0.2,0.8-0.1,1.2-0.1c14,0,28.1,0,42.1,0c0.2,0,0.5,0,0.7,0c0.8,0,1.5,0.3,1.5,1.1c0,0.9-0.6,1.2-1.4,1.2c-1.8,0-3.7,0-5.5,0
		C89,73.3,83.5,73.3,78.1,73.3z"/>
	<path fill="#FF2E8D" d="M78.1,96.3c-7,0-14,0-21,0c-0.4,0-0.8,0.1-1.1-0.1C55.5,96,55,95.6,55,95.2c0-0.4,0.5-0.9,0.9-1.1
		c0.3-0.2,0.8-0.1,1.2-0.1c14,0,28.1,0,42.1,0c0.2,0,0.5,0,0.7,0c0.8,0,1.5,0.3,1.5,1.1c0,0.9-0.6,1.2-1.4,1.2c-1.8,0-3.7,0-5.5,0
		C89,96.3,83.5,96.3,78.1,96.3z"/>
	<path fill="#FF2E8D" d="M78.1,108.9c-6.7,0-13.4,0-20.1,0c-0.4,0-0.8,0-1.3,0c-0.8,0-1.7,0-1.8-1.1c0-1.1,0.8-1.2,1.7-1.2
		c2.3,0,4.6,0,6.9,0c12,0,24,0,36,0c0.9,0,1.8,0,1.8,1.1c0,1.2-0.9,1.2-1.8,1.2C92.4,108.9,85.2,108.9,78.1,108.9
		C78.1,108.9,78.1,108.9,78.1,108.9z"/>
	<path fill="#FF2E8D" d="M80.6,46.8c-1.7,0-3.5,0-5.2,0c-0.8,0-1.6-0.2-1.6-1.2c0-1,0.8-1.2,1.6-1.2c3.4,0,6.9,0,10.3,0
		c0.8,0,1.6,0.1,1.6,1.1c0,1.1-0.8,1.2-1.7,1.2C84,46.8,82.3,46.8,80.6,46.8z"/>
	<path fill="#FF2E8D" d="M98.5,46.8c-1.7,0-3.5,0-5.2,0c-0.8,0-1.6-0.2-1.6-1.2c0-1,0.8-1.2,1.6-1.2c3.4,0,6.9,0,10.3,0
		c0.8,0,1.6,0.1,1.6,1.1c0,1.1-0.8,1.2-1.7,1.2C101.8,46.8,100.1,46.8,98.5,46.8z"/>
	<path fill="#FF2E8D" d="M116.4,46.8c-1.7,0-3.5,0-5.2,0c-0.8,0-1.6-0.2-1.6-1.2c0-1,0.8-1.2,1.6-1.2c3.4,0,6.9,0,10.3,0
		c0.8,0,1.6,0.1,1.6,1.1c0,1.1-0.8,1.2-1.7,1.2C119.8,46.8,118.1,46.8,116.4,46.8z"/>
	<path fill="#FF2E8D" d="M62.8,46.8c-1.7,0-3.5,0-5.2,0c-0.8,0-1.6-0.2-1.6-1.2c0-1,0.8-1.2,1.6-1.2c3.4,0,6.9,0,10.3,0
		c0.8,0,1.6,0.1,1.6,1.1c0,1.1-0.8,1.2-1.7,1.2C66.2,46.8,64.5,46.8,62.8,46.8z"/>
	<path fill="#FF2E8D" d="M117.2,111.1c-3.4,0-6.3-2.8-6.3-6.2c0-3.6,2.8-6.5,6.3-6.5c3.4,0,6.1,2.8,6.2,6.3
		C123.4,108.3,120.7,111.1,117.2,111.1z M117.2,100.8c-2.3,0-4,1.8-4.1,4.1c0,2.1,1.9,4,4,4c2.1,0,3.9-1.8,3.9-4
		C121.1,102.5,119.4,100.8,117.2,100.8z"/>
	<path fill="#FF2E8D" d="M142.8,111.1c-2.5,0-5.1,0-7.6,0c-0.8,0-1.6-0.1-1.7-1.1c-0.1-1.2,0.8-1.2,1.7-1.2c5.2,0,10.5,0,15.7,0
		c0.8,0,1.5,0.1,1.5,1.1c0,1-0.7,1.2-1.5,1.2C148.2,111.1,145.5,111.1,142.8,111.1z"/>
	<path fill="#FF2E8D" d="M142.9,118c-2.6,0-5.2,0-7.8,0c-0.8,0-1.6,0-1.6-1.1c0-1.1,0.8-1.2,1.7-1.2c5.2,0,10.3,0,15.5,0
		c0.8,0,1.7,0,1.7,1.2c0,1.1-0.9,1.1-1.7,1.1C148.1,118,145.5,118,142.9,118z"/>
	<path fill="#FF2E8D" d="M143,104.1c-2.6,0-5.2,0-7.8,0c-0.8,0-1.6-0.1-1.6-1.1c0-1,0.8-1.2,1.6-1.2c5.2,0,10.4,0,15.7,0
		c0.8,0,1.6,0.2,1.6,1.2c0,1-0.8,1.2-1.6,1.2C148.2,104.1,145.6,104.1,143,104.1C143,104.1,143,104.1,143,104.1z"/>
	<path fill="#FF2E8D" d="M117.2,119.8c-1.4,0-2.8,0-4.2,0c-0.8,0-1.6-0.2-1.4-1.2c0.1-0.5,0.9-1.1,1.4-1.1c2.8-0.1,5.6,0,8.4-0.1
		c0.8,0,1.4,0.3,1.4,1.2c0,0.9-0.7,1.1-1.5,1.2C120,119.9,118.6,119.8,117.2,119.8z"/>
	<path fill="#FF2E8D" d="M139.8,72.8c0,4.1-3.2,7.4-7.2,7.4c-3.9,0-7.2-3.3-7.2-7.3c0-4,3.3-7.4,7.3-7.4
		C136.6,65.5,139.8,68.8,139.8,72.8z"/>
	<path fill="#FF2E8D" d="M117.2,100.8c2.2,0,3.9,1.8,3.9,4c0,2.2-1.8,4-3.9,4c-2.1,0-4-1.9-4-4C113.2,102.5,114.9,100.8,117.2,100.8
		z"/>
</g>
<g>
	<path fill="#FD9900" d="M132.8,170.1h-22.2c-3.3,0-6-2.7-6-6v-21.4c0-3.3,2.7-6,6-6h22.2c3.3,0,6,2.7,6,6v21.4
		C138.8,167.4,136.1,170.1,132.8,170.1z"/>
	<path fill="#390000" d="M132.2,169.2h-21c-3.1,0-5.7-2.5-5.7-5.7v-20.2c0-3.1,2.5-5.7,5.7-5.7h21c3.1,0,5.7,2.5,5.7,5.7v20.2
		C137.8,166.6,135.3,169.2,132.2,169.2z"/>
	<g>
		<path fill="#FD9900" d="M118.5,145.2c0.5,0,1,0,1.6,0c0.3,0,0.4,0.1,0.5,0.4c1.3,3.7,2.6,7.4,3.9,11.1c0.4,1.1,0.8,2.1,1.1,3.2
			c0.1,0.3,0.1,0.4-0.3,0.4c-0.9,0-1.8,0-2.6,0c-0.2,0-0.4-0.1-0.4-0.3c-0.3-1-0.7-2-1-3c-0.1-0.2-0.1-0.3-0.4-0.3
			c-1.6,0-3.2,0-4.8,0c-0.2,0-0.3,0.1-0.3,0.3c-0.3,1-0.6,2-0.9,3c-0.1,0.3-0.2,0.3-0.5,0.3c-0.8,0-1.5,0-2.3,0
			c-0.5,0-0.5,0-0.3-0.5c1.3-3.8,2.6-7.6,4-11.4c0.3-0.8,0.6-1.5,0.7-2.3c0-0.2,0.1-0.8,0.5-0.8
			C117.5,145.2,117.9,145.2,118.5,145.2z M118.5,148C118.5,148,118.4,148,118.5,148c-0.2,0.4-0.3,0.9-0.5,1.3
			c-0.4,1.4-0.8,2.8-1.3,4.2c-0.1,0.2,0,0.3,0.2,0.3c1,0,2,0,3.1,0c0.2,0,0.3,0,0.2-0.2C119.6,151.7,119.1,149.9,118.5,148z"/>
		<path fill="#FD9900" d="M130.3,154.6c0,1.7,0,3.5,0,5.2c0,0.5,0,0.5-0.4,0.5c-0.8,0-1.6,0-2.4,0c-0.3,0-0.4-0.1-0.4-0.4
			c0-3.5,0-7.1,0-10.6c0-0.3,0.1-0.4,0.4-0.4c0.8,0,1.6,0,2.4,0c0.3,0,0.4,0.1,0.4,0.4C130.3,151,130.3,152.8,130.3,154.6z"/>
		<path fill="#FD9900" d="M130.5,145.9c0,1.1-0.7,1.8-1.7,1.8c-1.1,0-1.8-0.7-1.8-1.8c0-1,0.8-1.8,1.8-1.8
			C129.8,144.1,130.5,144.8,130.5,145.9z"/>
		<path fill="#390000" d="M118.5,148c0.6,1.9,1.1,3.7,1.7,5.6c0.1,0.2,0,0.2-0.2,0.2c-1,0-2,0-3.1,0c-0.3,0-0.3-0.1-0.2-0.3
			c0.4-1.4,0.9-2.8,1.3-4.2C118.1,148.9,118.3,148.4,118.5,148C118.4,148,118.5,148,118.5,148z"/>
	</g>
</g>
<g>
	<path fill="#01CFF9" d="M141.5,163.2c0-6.7,0-13.4,0-20.1c0,0,0.1-0.1,0.1-0.1c0.6-3.3,2.5-5.5,5.7-6.5c0.4-0.1,0.8-0.2,1.2-0.3
		c6.6,0,13.3,0,19.9,0c0,0,0,0.1,0.1,0.1c1.5,0.2,2.9,0.8,4.1,1.8c1.3,1,2.1,2.4,2.5,3.9c0.1,0.4,0.2,0.8,0.3,1.2c0,6.7,0,13.3,0,20
		c0,0-0.1,0-0.1,0.1c-0.2,1.5-0.8,2.8-1.8,4c-1,1.2-2.3,2.1-3.9,2.5c-0.4,0.1-0.8,0.2-1.2,0.3c-6.7,0-13.3,0-20,0
		c0,0-0.1-0.1-0.1-0.1c-3.3-0.6-5.5-2.5-6.5-5.7C141.7,164,141.7,163.6,141.5,163.2z M142.5,153.2c0,3,0,5.9,0,8.9
		c0,0.6,0,1.2,0.2,1.8c0.8,3.1,3.5,5.2,6.8,5.2c6,0,11.9,0,17.9,0c0.5,0,1,0,1.4-0.1c3.3-0.7,5.5-3.4,5.5-6.8c0-6,0-11.9,0-17.9
		c0-0.5,0-1-0.1-1.4c-0.7-3.3-3.4-5.5-6.9-5.5c-5.9,0-11.9,0-17.9,0c-0.8,0-1.5,0.1-2.3,0.3c-2.9,0.9-4.7,3.5-4.7,6.6
		C142.5,147.2,142.5,150.2,142.5,153.2z"/>
	<path fill="#002732" d="M142.5,153.2c0-3,0-6,0-9c0-3.1,1.9-5.7,4.7-6.6c0.7-0.2,1.5-0.3,2.3-0.3c6,0,11.9,0,17.9,0
		c3.5,0,6.2,2.2,6.9,5.5c0.1,0.5,0.1,1,0.1,1.4c0,6,0,11.9,0,17.9c0,3.4-2.2,6.2-5.5,6.8c-0.5,0.1-1,0.1-1.4,0.1c-6,0-11.9,0-17.9,0
		c-3.3,0-6-2.1-6.8-5.2c-0.2-0.6-0.2-1.2-0.2-1.8C142.5,159.1,142.5,156.2,142.5,153.2z M159.8,157.5
		C159.8,157.5,159.8,157.5,159.8,157.5c0,0.2,0,0.4,0,0.6c0,0.4,0.1,0.6,0.5,0.8c1.3,0.6,2.7,0.7,4,0.3c1.6-0.5,2.5-2,2-3.6
		c-0.3-0.9-0.9-1.4-1.7-1.8c-0.5-0.3-1-0.5-1.6-0.7c-0.2-0.1-0.6-0.2-0.5-0.5c0.1-0.3,0.4-0.3,0.7-0.3c0.6,0,1.2,0.1,1.8,0.5
		c0.5,0.3,0.8,0.1,0.8-0.5c0-0.4,0-0.7,0-1.1c0-0.6-0.1-0.7-0.6-0.9c-1-0.3-2.1-0.4-3.2-0.2c-1.3,0.3-2.2,1.2-2.4,2.4
		c-0.2,1.2,0.3,2.2,1.5,2.9c0.4,0.3,0.9,0.4,1.4,0.6c0.2,0.1,0.4,0.2,0.6,0.3c0.3,0.2,0.2,0.5-0.1,0.7c-0.2,0.1-0.4,0.1-0.5,0.1
		c-0.8,0-1.5-0.2-2.1-0.7c-0.2-0.1-0.3-0.2-0.5-0.1c-0.2,0.1-0.3,0.3-0.3,0.5C159.8,157,159.8,157.3,159.8,157.5z M150.4,153.1
		c0,1.8,0,3.7,0,5.5c0,0.5,0.2,0.7,0.7,0.7c0.5,0,1.1,0,1.6,0c0.5,0,0.7-0.2,0.7-0.7c0-1,0-2,0-2.9c0-0.3,0.1-0.4,0.4-0.4
		c0.7,0,1.3,0,2-0.2c2.5-0.6,3.7-2.1,3.5-4.5c-0.1-1.5-1-2.6-2.4-3.2c-0.7-0.3-1.3-0.4-2.1-0.4c-1.2-0.1-2.5,0-3.7,0
		c-0.6,0-0.7,0.1-0.7,0.7C150.4,149.5,150.4,151.3,150.4,153.1z"/>
	<path fill="#01CFF9" d="M159.8,157.5c0-0.3,0-0.5,0-0.8c0-0.2,0.1-0.4,0.3-0.5c0.2-0.1,0.4,0,0.5,0.1c0.6,0.5,1.3,0.7,2.1,0.7
		c0.2,0,0.4,0,0.5-0.1c0.4-0.1,0.4-0.4,0.1-0.7c-0.2-0.2-0.4-0.2-0.6-0.3c-0.5-0.2-0.9-0.4-1.4-0.6c-1.2-0.7-1.7-1.7-1.5-2.9
		c0.2-1.2,1.1-2.1,2.4-2.4c1.1-0.2,2.1-0.2,3.2,0.2c0.5,0.2,0.6,0.3,0.6,0.9c0,0.4,0,0.7,0,1.1c0,0.6-0.3,0.8-0.8,0.5
		c-0.6-0.3-1.2-0.5-1.8-0.5c-0.3,0-0.6,0-0.7,0.3c-0.1,0.3,0.2,0.4,0.5,0.5c0.5,0.2,1.1,0.4,1.6,0.7c0.8,0.4,1.4,0.9,1.7,1.8
		c0.5,1.6-0.4,3.1-2,3.6c-1.4,0.4-2.7,0.3-4-0.3c-0.4-0.2-0.5-0.4-0.5-0.8C159.8,158,159.8,157.7,159.8,157.5
		C159.8,157.5,159.8,157.5,159.8,157.5z"/>
	<path fill="#01CFF9" d="M150.4,153.1c0-1.8,0-3.6,0-5.4c0-0.6,0.1-0.7,0.7-0.7c1.2,0,2.5-0.1,3.7,0c0.7,0,1.4,0.1,2.1,0.4
		c1.4,0.6,2.2,1.7,2.4,3.2c0.2,2.4-1,3.9-3.5,4.5c-0.7,0.2-1.3,0.2-2,0.2c-0.3,0-0.4,0.1-0.4,0.4c0,1,0,2,0,2.9
		c0,0.5-0.2,0.7-0.7,0.7c-0.5,0-1.1,0-1.6,0c-0.5,0-0.7-0.2-0.7-0.7C150.4,156.8,150.4,155,150.4,153.1z"/>
	<path fill="#01CFF9" d="M151.2,153.2C151.2,153.2,151.2,153.2,151.2,153.2c0,1.4,0,2.8,0,4.2c0,0.4-0.2,0.8,0.1,1.1
		c0.2,0.2,0.7,0,1.1,0.1c0.3,0,0.3-0.1,0.3-0.3c0-1,0-2,0-3c0-0.7,0-0.7,0.7-0.7c1,0,1.9,0,2.9-0.3c1-0.4,1.8-0.9,2.2-2
		c0.7-2.1-0.5-4-2.6-4.4c-1.4-0.2-2.8-0.1-4.1-0.1c-0.3,0-0.4,0.1-0.4,0.4C151.2,149.8,151.2,151.5,151.2,153.2z"/>
	<path fill="#002732" d="M154.1,149.4c0.4,0,0.8,0,1.2,0.2c0.7,0.3,0.9,0.8,0.9,1.5c0,0.7-0.2,1.2-0.9,1.6c-0.6,0.3-1.3,0.3-1.9,0.3
		c-0.2,0-0.2-0.1-0.2-0.2c0-1,0-2.1,0-3.1c0-0.2,0.1-0.2,0.2-0.2C153.7,149.4,153.9,149.4,154.1,149.4z"/>
</g>
</svg>
