<?xml version="1.0" encoding="utf-8"?>
<!-- Generator: Adobe Illustrator 24.1.2, SVG Export Plug-In . SVG Version: 6.00 Build 0)  -->
<svg version="1.1" id="Capa_1" xmlns="http://www.w3.org/2000/svg" xmlns:xlink="http://www.w3.org/1999/xlink" x="0px" y="0px"
	 viewBox="0 0 184.6 184.6" enable-background="new 0 0 184.6 184.6" xml:space="preserve">
<circle fill="#12183D" cx="92.3" cy="92.7" r="91.9"/>
<g>
	<g>
		<polygon fill="none" points="114.3,55 105,48 98.7,57.4 107.2,63.7 		"/>
		<path fill="none" d="M105.3,65.5c-2.5-1.9-5.1-3.8-7.7-5.7l-0.1-0.1c-0.6-0.4-1.2-0.7-1.8-0.8c-5.7-0.5-11.1,3.1-12.8,8.6
			c-1.3,4.4-0.8,8.8-0.1,12.5l0.3,1.7l1.5-0.8c3.5-1.7,7.2-1.8,10.4-1.6c1.3,0.1,2.5,0.1,3.7,0.1c4.2-0.2,7.3-2.7,8-6.4
			c0.3-1.6,0.1-3.1,0-4.6l-0.1-0.6C106.7,66.9,106,66,105.3,65.5z"/>
		<path fill="none" d="M107.1,44.9l-0.7,1.2l9.4,7l7.2-8.8c3.4-4.2,6.9-8.4,10.3-12.6c1.9-2.3,2.4-4.7,1.6-7.2c-0.9-2.9-3-4.7-6-5.1
			c-3-0.4-5.4,0.8-7.2,3.4l-14.3,21.3C107.4,44.4,107.2,44.7,107.1,44.9z"/>
	</g>
	<g>
		<polygon fill="none" points="114.3,55 105,48 98.7,57.4 107.2,63.7 		"/>
		<path fill="none" d="M107.1,44.9l-0.7,1.2l9.4,7l7.2-8.8c3.4-4.2,6.9-8.4,10.3-12.6c1.9-2.3,2.4-4.7,1.6-7.2c-0.9-2.9-3-4.7-6-5.1
			c-3-0.4-5.4,0.8-7.2,3.4l-14.3,21.3C107.4,44.4,107.2,44.7,107.1,44.9z"/>
		<path fill="none" d="M105.3,65.5c-2.5-1.9-5.1-3.8-7.7-5.7l-0.1-0.1c-0.6-0.4-1.2-0.7-1.8-0.8c-5.7-0.5-11.1,3.1-12.8,8.6
			c-1.3,4.4-0.8,8.8-0.1,12.5l0.3,1.7l1.5-0.8c3.5-1.7,7.2-1.8,10.4-1.6c1.3,0.1,2.5,0.1,3.7,0.1c4.2-0.2,7.3-2.7,8-6.4
			c0.3-1.6,0.1-3.1,0-4.6l-0.1-0.6C106.7,66.9,106,66,105.3,65.5z"/>
		<path fill="none" d="M64.1,92.7c0.5-0.1,1.1-0.1,1.7-0.1c23,0,46,0,69,0h10.7l0-48.9c0-0.5,0-0.9-0.1-1.4
			c-0.4-3.4-2.9-5.8-6.3-5.9c-0.7,0-1.3,0-2,0c-0.8,0-1.6,0-2.3,0c-1.3-0.1-2.4,0.4-3.3,1.5c-7.8,9.5-14.3,17.5-21,25.5
			c-1,1.2-1.9,2.8-1.1,5c0.2,0.5,0.2,1.2,0.2,1.8l0,0.3c0.1,6.8-4.9,11.2-9.6,11.3c-2.1,0.1-4.3,0-6.4,0l-0.2,0
			c-4.3-0.1-7.5,0.9-10.1,3.3c-0.3,0.3-0.7,0.4-1.1,0.3c-0.4-0.1-0.7-0.5-0.9-1c-1.4-5.3-1.9-9.6-1.5-13.7
			c0.8-8.4,6.4-13.8,14.7-14.2c1.2-0.1,2.1-0.5,2.8-1.6c2.4-3.7,4.9-7.4,7.4-11l2.9-4.3c0.2-0.2,0.3-0.5,0.5-0.8l1.5-2.5l-66.7,0
			c-4.8,0-7.3,2.5-7.3,7.3l0,48.8l1.7,0.1c0.3,0,0.6,0,0.9,0c0.7,0,1.3,0,2,0c1.3,0,2.6,0,3.9,0c0.8,0,1.3,0.5,1.3,1.2
			c0,1-0.9,1.2-1.4,1.2c-0.8,0-1.6,0-2.4,0l-5.9,0l0,4.9c0,2.7,0,5.2,0,7.8c0,4.3,2.7,7,7,7c16,0,32,0,47.9,0c16,0,32,0,47.9,0
			c4.3,0,6.9-2.7,7-7c0-2.8,0-5.7,0-8.5l0-1.8c0-0.3,0-0.5-0.1-0.8c0-0.1,0-0.3,0-0.4l-0.1-1.2l-79.5,0l-0.3,0c-0.4,0-0.8,0-1.2,0
			c-0.6-0.1-1-0.5-1-1.1C63.2,93.3,63.6,92.8,64.1,92.7z"/>
		<path fill="#FF2E8D" d="M141.1,32.8c-1.1-0.2-2.2-0.2-3.3-0.3c0.4-1.6,1-3.1,1.2-4.6c0.5-5.4-2.6-10-7.6-11.6
			c-0.4-0.1-2.5-0.4-3.3-0.4c-0.8,0-2.9,0.2-3.2,0.3c-2.7,0.8-4.8,2.4-6.3,4.8c-2.4,3.6-4.8,7.1-7.1,10.6c-0.5,0.8-1,1-1.9,1
			c-22.2,0-44.5,0-66.7,0c-5.1,0-8.9,2.6-10.3,7c-0.4,1.2-0.6,2.6-0.6,3.9c0,21.4,0,42.8,0,64.2c0,6.5,4.3,10.9,10.9,10.9
			c12.5,0,24.9,0,37.4,0c0.5,0,1,0,1.7,0c-0.1,0.6-0.2,1-0.3,1.4c-0.8,3.3-1.6,6.6-2.3,10c-0.2,0.9-0.5,1.3-1.5,1.2
			c-1.5-0.1-3,0-4.6,0c-5.2,0-8.4,3.1-8.4,8.3c0,0.3,0,0.5,0,1c-1.5,0-3,0-4.5,0c-0.9,0-1.9,0-2.8,0c-1.8,0-2.8,0.6-3.1,1.8
			c-0.4,1.4,0.2,2.3,1.8,3.2c23,0,45.9,0,68.9,0c1.6-0.9,2.2-2,1.7-3.3c-0.4-1.2-1.4-1.7-2.7-1.7c-2.5,0-5,0-7.6,0
			c-0.1-1-0.1-1.9-0.2-2.8c-0.6-3.7-3.4-6.2-7.1-6.4c-2-0.1-4,0-5.9-0.1c-0.4,0-1-0.3-1-0.6c-1-3.9-1.9-7.9-2.9-12
			c0.6,0,1.1,0,1.6,0c12.5,0,25,0,37.5,0c5.4,0,9.5-3.1,10.6-8c0.2-1,0.3-2,0.3-3c0-21.3,0-42.6,0-63.9
			C149.3,37.9,146.2,33.8,141.1,32.8z M121.8,22.9c1.8-2.6,4.2-3.8,7.2-3.4c3,0.4,5.1,2.2,6,5.1c0.8,2.5,0.3,5-1.6,7.2
			c-3.4,4.2-6.9,8.4-10.3,12.6l-7.2,8.8l-9.4-7l0.7-1.2c0.1-0.2,0.2-0.4,0.4-0.6L121.8,22.9z M98.7,57.4L105,48l9.4,7l-7.2,8.8
			L98.7,57.4z M106.9,73.1c-0.7,3.7-3.8,6.1-8,6.4c-1.2,0.1-2.4,0-3.7-0.1c-3.1-0.2-6.8-0.1-10.4,1.6l-1.5,0.8L83,80.1
			c-0.7-3.7-1.3-8.1,0.1-12.5c1.6-5.4,7.1-9.1,12.8-8.6c0.6,0.1,1.2,0.3,1.8,0.8l0.1,0.1c2.5,1.8,5.1,3.8,7.7,5.7
			c0.7,0.5,1.4,1.4,1.5,2.4l0.1,0.6C107,70,107.2,71.5,106.9,73.1z M107.7,133.9c1.4,0,3.3,0.2,4.6,1.6c1.3,1.4,1.3,3.4,1.1,5
			l-0.2,1.9H68.1l-0.3-1.9c-0.2-1.4-0.4-3.4,1-5c1.3-1.5,3.3-1.7,4.7-1.7C84.8,133.9,96.3,133.9,107.7,133.9z M99.5,130.9l-17.6-0.1
			l3.4-14.5h10.4l0.4,1.7c1,4,2.6,10.1,2.6,10.1L99.5,130.9z M64.3,94.9c0.4,0,0.8,0,1.2,0l0.3,0l79.5,0l0.1,1.2c0,0.1,0,0.3,0,0.4
			c0,0.3,0.1,0.6,0.1,0.8l0,1.8c0,2.8,0,5.7,0,8.5c0,4.3-2.7,7-7,7c-16,0-32,0-47.9,0c-16,0-32,0-47.9,0c-4.3,0-7-2.7-7-7
			c0-2.6,0-5.2,0-7.8l0-4.9l5.9,0c0.8,0,1.6,0,2.4,0c0.5,0,1.4-0.2,1.4-1.2c0-0.7-0.5-1.2-1.3-1.2c-1.3-0.1-2.6,0-3.9,0
			c-0.7,0-1.3,0-2,0c-0.3,0-0.5,0-0.9,0l-1.7-0.1l0-48.8c0-4.8,2.5-7.3,7.3-7.3l66.7,0l-1.5,2.5c-0.2,0.3-0.3,0.5-0.5,0.8l-2.9,4.3
			c-2.5,3.7-4.9,7.4-7.4,11c-0.7,1-1.5,1.5-2.8,1.6c-8.3,0.3-14,5.8-14.7,14.2c-0.4,4.1,0.1,8.4,1.5,13.7c0.1,0.5,0.5,0.9,0.9,1
			c0.4,0.1,0.7,0,1.1-0.3c2.6-2.4,5.8-3.4,10.1-3.3l0.2,0c2.1,0.1,4.3,0.1,6.4,0c4.7-0.2,9.8-4.6,9.6-11.3l0-0.3
			c0-0.7,0-1.3-0.2-1.8c-0.8-2.2,0.1-3.8,1.1-5c6.7-8,13.2-16,21-25.5c0.9-1.1,2-1.6,3.3-1.5c0.7,0,1.5,0,2.3,0c0.7,0,1.3,0,2,0
			c3.4,0.1,5.9,2.5,6.3,5.9c0.1,0.5,0.1,0.9,0.1,1.4l0,48.9h-10.7c-23,0-46,0-69,0c-0.6,0-1.2,0-1.7,0.1c-0.5,0.1-0.9,0.6-0.8,1.2
			C63.3,94.4,63.7,94.9,64.3,94.9z"/>
	</g>
</g>
<g>
	<path fill="#0069C2" d="M163.5,170.1h-22.2c-3.3,0-6-2.7-6-6v-21.4c0-3.3,2.7-6,6-6h22.2c3.3,0,6,2.7,6,6v21.4
		C169.4,167.4,166.7,170.1,163.5,170.1z"/>
	<path fill="#E5F3FE" d="M162.8,169.2h-21c-3.1,0-5.7-2.5-5.7-5.7v-20.2c0-3.1,2.5-5.7,5.7-5.7h21c3.1,0,5.7,2.5,5.7,5.7v20.2
		C168.5,166.6,165.9,169.2,162.8,169.2z"/>
	<path fill="#0069C2" d="M139.1,143.6c0.1-0.5,0.3-1,0.7-1.3c0.4-0.3,0.8-0.5,1.3-0.5c0.7,0,1.3,0,2,0c0.4,0,0.6,0.2,0.6,0.5
		c0,0.3-0.2,0.5-0.6,0.5c-0.6,0-1.3,0-1.9,0c-0.7,0-1.1,0.4-1.1,1.1c0,2.2,0,4.3,0,6.5c0,0.7,0.4,1.1,1.1,1.1c2.6,0,5.1,0,7.7,0
		c0.1,0,0.2-0.1,0.3-0.1c0.7-1.1,1.6-2,2.8-2.6c0,0,0,0,0.1,0c-0.3-0.6-0.6-1.2-0.9-1.8c-0.1,0.2-0.2,0.3-0.2,0.4
		c-0.2,0.4-0.4,0.8-0.6,1.2c-0.1,0.2-0.2,0.4-0.5,0.4c-0.3,0-0.4-0.2-0.5-0.4c-0.4-0.8-0.8-1.6-1.2-2.4c0-0.1-0.1-0.1-0.1-0.2
		c-0.1-0.3,0-0.5,0.2-0.7c0.2-0.1,0.5-0.1,0.7,0.2c0.2,0.3,0.4,0.7,0.6,1.1c0.1,0.2,0.2,0.4,0.3,0.7c0.2-0.4,0.4-0.8,0.6-1.3
		c0.1-0.1,0.1-0.3,0.2-0.4c0.1-0.2,0.2-0.3,0.5-0.4c0.2,0,0.4,0.1,0.5,0.3c0.2,0.5,0.5,0.9,0.7,1.4c0,0.1,0.1,0.1,0.1,0.3
		c0-0.1,0.1-0.2,0.1-0.2c0.2-0.5,0.5-1,0.7-1.4c0.1-0.2,0.3-0.4,0.6-0.3c0.2,0,0.4,0.2,0.4,0.4c0,0.1,0,0.3-0.1,0.4
		c-0.3,0.6-0.6,1.3-0.9,1.9c0,0.1-0.1,0.2-0.1,0.3c0.9-0.2,1.8-0.3,2.7-0.2c-0.1-0.3-0.2-0.5-0.4-0.7c-0.2-0.5-0.5-0.9-0.7-1.4
		c-0.1-0.2-0.1-0.4,0-0.6c0.2-0.3,0.7-0.2,0.9,0.1c0.2,0.5,0.5,0.9,0.7,1.4c0,0.1,0.1,0.2,0.2,0.3c0.2-0.5,0.5-1,0.7-1.5
		c0.1-0.3,0.2-0.5,0.6-0.5c0.3,0,0.4,0.3,0.6,0.5c0.2,0.5,0.5,1,0.8,1.5c0.3-0.5,0.5-1,0.7-1.5c0.1-0.1,0.1-0.2,0.2-0.3
		c0.1-0.2,0.4-0.2,0.6-0.1c0.2,0.1,0.3,0.3,0.3,0.6c0,0.1-0.1,0.2-0.1,0.2c-0.4,0.8-0.8,1.6-1.1,2.4c-0.1,0.2-0.2,0.4-0.5,0.4
		c-0.3,0-0.4-0.2-0.5-0.4c-0.2-0.5-0.5-0.9-0.7-1.4c0-0.1-0.1-0.1-0.1-0.2c-0.3,0.5-0.5,1-0.7,1.5c0.4,0.2,0.8,0.4,1.2,0.6
		c0.9,0.5,1.7,1.3,2.2,2.2c0.1,0.1,0.2,0.2,0.3,0.2c0.7,0,1.4,0,2.1,0c0.7,0,1.1-0.4,1.1-1.1c0-2.2,0-4.3,0-6.5
		c0-0.7-0.4-1.1-1.1-1.1c-5,0-10,0-15,0c-0.1,0-0.2,0-0.3,0c-0.3,0-0.5-0.2-0.5-0.5c0-0.3,0.2-0.5,0.5-0.5c0.1,0,0.1,0,0.2,0
		c5,0,10,0,15.1,0c1.1,0,2,0.7,2.2,1.7c0,0,0,0,0,0.1c0,2.4,0,4.8,0,7.2c0,0,0,0.1,0,0.1c-0.1,0.7-0.5,1.2-1.1,1.4
		c-0.3,0.1-0.7,0.2-1,0.2c-0.6,0-1.2,0-1.9,0c0.8,2.9,0.2,5.4-2.1,7.4c1.3,1.3,2.6,2.6,3.9,3.9c0,0,0,0,0.1,0c0.4,0.3,1,0.1,1.1-0.4
		c0.1-0.3-0.1-0.5-0.2-0.7c-0.5-0.5-1-1-1.5-1.4c-0.2-0.2-0.3-0.4-0.2-0.6c0.2-0.3,0.6-0.4,0.9-0.1c0.4,0.4,0.8,0.8,1.2,1.2
		c0.4,0.4,0.7,0.8,0.8,1.3c0,0.2,0,0.3,0,0.5c-0.1,0.4-0.3,0.8-0.7,1.1c-0.6,0.5-1.5,0.5-2.1,0c-0.1-0.1-0.2-0.2-0.3-0.3
		c-1.2-1.2-2.5-2.5-3.7-3.7c-0.1-0.1-0.2-0.1-0.4-0.1c-3.6,1.9-8.2,0.1-9.4-3.9c-0.4-1.3-0.4-2.6,0-3.9c0-0.1,0-0.1,0.1-0.2
		c0,0,0,0,0-0.1c-0.1,0-0.2,0-0.3,0c-2.3,0-4.5,0-6.8,0c-1.2,0-2.2-0.5-2.4-1.8C139.1,148.4,139.1,146,139.1,143.6z M154.8,160.4
		c3.1,0,5.6-2.5,5.6-5.6c0-3.1-2.5-5.6-5.6-5.6c-3.1,0-5.6,2.5-5.6,5.6C149.3,157.9,151.8,160.4,154.8,160.4z"/>
</g>
</svg>
