<?xml version="1.0" encoding="utf-8"?>
<!-- Generator: Adobe Illustrator 24.1.2, SVG Export Plug-In . SVG Version: 6.00 Build 0)  -->
<svg version="1.1" id="Capa_1" xmlns="http://www.w3.org/2000/svg" xmlns:xlink="http://www.w3.org/1999/xlink" x="0px" y="0px"
	 viewBox="0 0 184.6 184.6" enable-background="new 0 0 184.6 184.6" xml:space="preserve">
<circle fill="#12183D" cx="92.3" cy="92.7" r="91.9"/>
<g>
	<path fill="none" stroke="#FF2E8D" stroke-width="2.461" stroke-miterlimit="10" d="M105,120.3c-9.3,0-18.6,0-27.9,0
		c-4.4,0-7.2-2-9-6c-1-2.1-2.3-4-3.5-6c-3-4.7-6.2-9.3-9.1-14.2c-3.3-5.4-5-11.4-5.8-17.7c-0.7-5.4-0.5-10.7,0.6-16
		c1.3-6.1,4-11.4,7.9-16.1c7.7-9.3,17.6-14.5,29.5-15.7c9.3-1,18.1,0.7,26.3,5.1c7.1,3.7,12.8,8.9,16.6,16c4.8,9,6,18.6,3.9,28.6
		c-1.5,7.1-4.3,13.7-7.9,20c-2.6,4.6-5.5,9-8.3,13.5c-0.6,0.9-1.1,1.8-1.5,2.8c-1.7,3.7-4.5,5.6-8.6,5.6
		C107.1,120.3,106,120.3,105,120.3z"/>
	<path fill="none" stroke="#FF2E8D" stroke-width="2.461" stroke-miterlimit="10" d="M110.6,128.1v1.1c0,1.2-1,2.2-2.2,2.2
		c-1.1,0-2.3,0-3.4,0c-4.2,0-8.4,0-12.5,0c-1.8,0-3.1,1.3-3.1,3c0,1.7,1.3,3,3.1,3c4.1,0,11.7,0,15.5,0c1.2,0,2.2,1,2.2,2.2l0,2.6
		c0,1.2-1,2.2-2.2,2.2c-3.7,0-11.3,0-15.2,0.1c-0.8,0-1.6,0.2-2.2,0.6c-1.1,0.7-1.4,2.1-1.1,3.3c0.4,1.3,1.5,2.1,2.9,2.1
		c4.2,0,8.4,0,12.6,0c0.2,0,0.3,0,0.5,0c0.1,0,0.1,0.7-4.5,3.3c-9.4,5.2-21.1,1.7-25.5-8.1c-1.1-2.5-1.5-14.3-1.5-18.4
		c0-0.8,0.6-1.4,1.4-1.4h33C109.6,125.9,110.6,126.8,110.6,128.1z"/>
	<path fill="#FF2E8D" d="M119.8,52.2c-0.2,0.9-0.5,1.8-1.2,2.6c-2.2,2.6-6.5,2.1-8-1c-0.2-0.4-0.4-0.5-0.8-0.5c-1.8,0-3.5,0-5.5,0
		c0.2,0.2,0.3,0.2,0.4,0.3c4.8,3,8.3,7.1,10.3,12.5c1,2.6,1.4,5.2,1.5,8c0,1-0.7,1.8-1.6,1.8c-0.9,0-1.6-0.7-1.6-1.7
		c-0.1-2.8-0.6-5.5-1.7-8.1c-1.8-4.1-4.6-7.2-8.3-9.6c-1.8-1.1-3.7-2-5.8-2.5c-0.2,0-0.3-0.1-0.5-0.1c0,0.4,0,0.7,0,1
		c0,0.9-0.7,1.6-1.6,1.6c-2.2,0-4.3,0-6.5,0c-0.9,0-1.6-0.7-1.6-1.6c0-0.3,0-0.6,0-1.1c-1.2,0.4-2.4,0.8-3.5,1.2
		c-6.1,2.8-10.1,7.4-11.9,13.8c-0.5,1.7-0.7,3.5-0.7,5.3c0,1.2-1.1,2-2.2,1.6c-0.6-0.2-1-0.8-1-1.5c0-3,0.5-5.8,1.6-8.6
		c1.5-3.9,3.9-7.2,7.1-9.9c0.8-0.7,1.8-1.3,2.7-1.9c0.2-0.1,0.3-0.2,0.6-0.4c-1.4,0-2.6,0-3.8,0c-0.6,0-1.1,0-1.7,0
		c-0.3,0-0.4,0.1-0.6,0.4c-1.4,3.1-5.3,3.8-7.7,1.5c-1.3-1.3-1.8-2.9-1.3-4.7c0.5-1.9,1.8-3.1,3.8-3.5c0.1,0,0.2-0.1,0.4-0.1
		c0.4,0,0.8,0,1.2,0c0.2,0.1,0.4,0.1,0.6,0.2c1.4,0.4,2.5,1.3,3.1,2.6c0.2,0.4,0.4,0.4,0.7,0.4c4,0,8.1,0,12.1,0c0.2,0,0.3,0,0.6,0
		c0.1-1.2-0.3-2.6,1.2-3.2c2.4,0,4.9,0,7.3,0c1.5,0.6,1.1,2,1.2,3.2c0.2,0,0.4,0,0.6,0c4.1,0,8.1,0,12.2,0c0.4,0,0.6-0.1,0.8-0.5
		c0.1-0.4,0.4-0.7,0.6-1c0.8-1,1.9-1.5,3.1-1.8c0.4,0,0.8,0,1.2,0c0.1,0,0.1,0.1,0.2,0.1c1.2,0.2,2.2,0.8,3,1.7
		c0.6,0.7,0.9,1.6,1.1,2.5C119.8,51.5,119.8,51.9,119.8,52.2z"/>
	<path fill="#12183D" d="M91,53.3h2.3c0.2,0,0.4-0.2,0.4-0.4v-2.3c0-0.2-0.2-0.4-0.4-0.4H91c-0.2,0-0.4,0.2-0.4,0.4v2.3
		C90.6,53.1,90.8,53.3,91,53.3z"/>
	<path fill="#12183D" d="M69.6,50.1c-0.9,0-1.6,0.7-1.6,1.6c0,0.9,0.7,1.6,1.6,1.6c0.9,0,1.6-0.7,1.6-1.6
		C71.2,50.8,70.5,50.1,69.6,50.1z"/>
	<path fill="#12183D" d="M116.6,51.7c0-0.9-0.7-1.6-1.6-1.6c-0.9,0-1.6,0.7-1.6,1.6c0,0.9,0.7,1.6,1.6,1.6
		C115.9,53.3,116.6,52.6,116.6,51.7z"/>
	<path fill="#FF2E8D" d="M100.9,91.2c0.5,0.2,1,0.4,1.4,0.7c0.3,0.2,0.4,0.7,0.4,1.1c0,1.9,0,3.8,0,5.7c0,1-0.6,1.6-1.6,1.6
		c-5.9,0-11.8,0-17.7,0c-1,0-1.6-0.6-1.6-1.7c0-1.8,0-3.6,0-5.4c0-1.4,0.4-1.8,1.9-2c-0.1-0.2-0.2-0.3-0.2-0.4c-0.6-1-1.2-2-1.7-3
		c-2-3.7-2-7.5,0.2-11.1c2.9-4.9,6-9.7,9-14.6c0.8-1.2,2-1.3,2.8,0c3,4.9,6,9.7,9,14.6c2.2,3.6,2.2,7.4,0.2,11.1
		C102.1,89.1,101.5,90.2,100.9,91.2z"/>
	<path fill="#12183D" d="M93.8,66.7c0,0,0,6.3,0,9.2c0,0.2,0.2,0.4,0.4,0.4c2.1,1,3.2,3.2,2.7,5.4c-0.5,2.2-2.5,3.8-4.7,3.8
		c-2.2,0-4.2-1.6-4.7-3.8c-0.5-2.2,0.6-4.5,2.7-5.4c0.3-0.2,0.4-0.3,0.4-0.7c0-2.7,0-8.7,0-8.9c-0.1,0.2-4.7,7.9-6.9,11.5
		c-1.5,2.6-1.7,5.3-0.4,8c1,2,2.1,3.8,3.2,5.7c0.1,0.1,0.4,0.3,0.6,0.3c3.4,0,6.8,0,10.2,0c0.3,0,0.5-0.1,0.7-0.4
		c0.9-1.6,1.8-3.2,2.7-4.8c1.7-3.1,1.7-6.1-0.2-9.2C98.4,74.5,93.9,66.9,93.8,66.7z"/>
	<path fill="#12183D" d="M83.9,98.6h16.6c0.4,0,0.6-0.3,0.6-0.6v-3.3c0-0.4-0.3-0.6-0.6-0.6H83.9c-0.4,0-0.6,0.3-0.6,0.6V98
		C83.3,98.4,83.6,98.6,83.9,98.6z"/>
	<path d="M90.6,80.7c0,0.9,0.7,1.6,1.6,1.7c0.9,0,1.6-0.7,1.7-1.6c0-0.9-0.7-1.6-1.6-1.7C91.4,79.1,90.6,79.8,90.6,80.7z"/>
	<path fill="#12183D" d="M90.6,80.7c0-0.9,0.8-1.6,1.7-1.6c0.9,0,1.6,0.8,1.6,1.7c0,0.9-0.8,1.6-1.7,1.6
		C91.3,82.3,90.6,81.6,90.6,80.7z"/>
</g>
<g>
	<path fill="#FD9900" d="M167.4,170.1h-22.2c-3.3,0-6-2.7-6-6v-21.4c0-3.3,2.7-6,6-6h22.2c3.3,0,6,2.7,6,6v21.4
		C173.4,167.4,170.7,170.1,167.4,170.1z"/>
	<path fill="#390000" d="M166.8,169.2h-21c-3.1,0-5.7-2.5-5.7-5.7v-20.2c0-3.1,2.5-5.7,5.7-5.7h21c3.1,0,5.7,2.5,5.7,5.7v20.2
		C172.4,166.6,169.9,169.2,166.8,169.2z"/>
	<g>
		<path fill="#FD9900" d="M153.1,145.2c0.5,0,1,0,1.6,0c0.3,0,0.4,0.1,0.5,0.4c1.3,3.7,2.6,7.4,3.9,11.1c0.4,1.1,0.8,2.1,1.1,3.2
			c0.1,0.3,0.1,0.4-0.3,0.4c-0.9,0-1.8,0-2.6,0c-0.2,0-0.4-0.1-0.4-0.3c-0.3-1-0.7-2-1-3c-0.1-0.2-0.1-0.3-0.4-0.3
			c-1.6,0-3.2,0-4.8,0c-0.2,0-0.3,0.1-0.3,0.3c-0.3,1-0.6,2-0.9,3c-0.1,0.3-0.2,0.3-0.5,0.3c-0.8,0-1.5,0-2.3,0
			c-0.5,0-0.5,0-0.3-0.5c1.3-3.8,2.6-7.6,4-11.4c0.3-0.8,0.6-1.5,0.7-2.3c0-0.2,0.1-0.8,0.5-0.8
			C152.1,145.2,152.5,145.2,153.1,145.2z M153.1,148C153.1,148,153.1,148,153.1,148c-0.2,0.4-0.3,0.9-0.5,1.3
			c-0.4,1.4-0.8,2.8-1.3,4.2c-0.1,0.2,0,0.3,0.2,0.3c1,0,2,0,3.1,0c0.2,0,0.3,0,0.2-0.2C154.3,151.7,153.7,149.9,153.1,148z"/>
		<path fill="#FD9900" d="M165,154.6c0,1.7,0,3.5,0,5.2c0,0.5,0,0.5-0.4,0.5c-0.8,0-1.6,0-2.4,0c-0.3,0-0.4-0.1-0.4-0.4
			c0-3.5,0-7.1,0-10.6c0-0.3,0.1-0.4,0.4-0.4c0.8,0,1.6,0,2.4,0c0.3,0,0.4,0.1,0.4,0.4C165,151,165,152.8,165,154.6z"/>
		<path fill="#FD9900" d="M165.2,145.9c0,1.1-0.7,1.8-1.7,1.8c-1.1,0-1.8-0.7-1.8-1.8c0-1,0.8-1.8,1.8-1.8
			C164.5,144.1,165.2,144.8,165.2,145.9z"/>
		<path fill="#390000" d="M153.1,148c0.6,1.9,1.1,3.7,1.7,5.6c0.1,0.2,0,0.2-0.2,0.2c-1,0-2,0-3.1,0c-0.3,0-0.3-0.1-0.2-0.3
			c0.4-1.4,0.9-2.8,1.3-4.2C152.8,148.9,152.9,148.4,153.1,148C153.1,148,153.1,148,153.1,148z"/>
	</g>
</g>
</svg>
